<?xml version="1.0" encoding="UTF-8"?>
<!DOCTYPE svg PUBLIC "-//W3C//DTD SVG 1.1//EN" "http://www.w3.org/Graphics/SVG/1.1/DTD/svg11.dtd">
<svg xmlns="http://www.w3.org/2000/svg" version="1.1" width="192px" height="192px" style="shape-rendering:geometricPrecision; text-rendering:geometricPrecision; image-rendering:optimizeQuality; fill-rule:evenodd; clip-rule:evenodd" xmlns:xlink="http://www.w3.org/1999/xlink">
<g><path style="opacity:0.843" fill="#ff0804" d="M 0.5,-0.5 C 16.5,-0.5 32.5,-0.5 48.5,-0.5C 68.9147,21.8627 79.5814,48.3627 80.5,79C 80.4915,83.5572 79.8248,87.7238 78.5,91.5C 74.5,91.5 70.5,91.5 66.5,91.5C 65.8333,91.5 65.1667,91.5 64.5,91.5C 65.4572,79.8165 63.9572,68.4832 60,57.5C 59.6174,56.944 59.1174,56.6107 58.5,56.5C 57.8333,54.1667 57.1667,51.8333 56.5,49.5C 56.2451,47.0326 55.2451,45.0326 53.5,43.5C 52.8333,41.5 52.1667,39.5 51.5,37.5C 49.7451,34.3197 47.7451,31.3197 45.5,28.5C 44.5806,25.9108 42.914,23.9108 40.5,22.5C 38.8333,18.8333 36.1667,16.1667 32.5,14.5C 31.145,11.4823 28.8116,10.149 25.5,10.5C 23.8185,8.99249 21.8185,7.99249 19.5,7.5C 13.7055,4.14241 7.37219,2.80908 0.5,3.5C 0.5,2.16667 0.5,0.833333 0.5,-0.5 Z"/></g>
<g><path style="opacity:0.958" fill="#faf8f8" d="M 0.5,4.5 C 6.77918,5.60176 13.1125,6.60176 19.5,7.5C 21.8185,7.99249 23.8185,8.99249 25.5,10.5C 27.5664,12.1991 29.8997,13.5324 32.5,14.5C 34.8333,17.5 37.5,20.1667 40.5,22.5C 41.4194,25.0892 43.086,27.0892 45.5,28.5C 45.7445,32.652 47.7445,35.652 51.5,37.5C 52.1667,39.5 52.8333,41.5 53.5,43.5C 53.7549,45.9674 54.7549,47.9674 56.5,49.5C 57.1667,51.8333 57.8333,54.1667 58.5,56.5C 58.5,57.1667 58.5,57.8333 58.5,58.5C 60.1806,69.4394 61.5139,80.4394 62.5,91.5C 58.1667,91.5 53.8333,91.5 49.5,91.5C 49.7603,83.3829 48.927,75.3829 47,67.5C 45.9535,64.1411 44.4535,61.1411 42.5,58.5C 41.0343,55.7528 40.2009,52.7528 40,49.5C 39.2917,48.6195 38.4584,47.9528 37.5,47.5C 36.8333,46.1667 35.8333,45.1667 34.5,44.5C 32.9128,41.7318 31.0795,39.0652 29,36.5C 27.871,34.8588 26.371,33.8588 24.5,33.5C 18.6026,25.0632 10.6026,22.0632 0.5,24.5C 0.5,17.8333 0.5,11.1667 0.5,4.5 Z"/></g>
<g><path style="opacity:0.714" fill="#ffb6b4" d="M 0.5,4.5 C 0.5,4.16667 0.5,3.83333 0.5,3.5C 7.37219,2.80908 13.7055,4.14241 19.5,7.5C 13.1125,6.60176 6.77918,5.60176 0.5,4.5 Z"/></g>
<g><path style="opacity:1" fill="#ff726f" d="M 25.5,10.5 C 28.8116,10.149 31.145,11.4823 32.5,14.5C 29.8997,13.5324 27.5664,12.1991 25.5,10.5 Z"/></g>
<g><path style="opacity:1" fill="#fe7370" d="M 32.5,14.5 C 36.1667,16.1667 38.8333,18.8333 40.5,22.5C 37.5,20.1667 34.8333,17.5 32.5,14.5 Z"/></g>
<g><path style="opacity:1" fill="#fe9593" d="M 40.5,22.5 C 42.914,23.9108 44.5806,25.9108 45.5,28.5C 43.086,27.0892 41.4194,25.0892 40.5,22.5 Z"/></g>
<g><path style="opacity:1" fill="#a9a9a9" d="M 24.5,33.5 C 21.8997,32.5324 19.5664,31.1991 17.5,29.5C 16.9423,28.2101 15.9423,27.3768 14.5,27C 9.88199,26.006 5.21532,25.506 0.5,25.5C 0.5,25.1667 0.5,24.8333 0.5,24.5C 10.6026,22.0632 18.6026,25.0632 24.5,33.5 Z"/></g>
<g><path style="opacity:0.824" fill="#020202" d="M 0.5,26.5 C 6.22205,27.0823 11.8887,28.0823 17.5,29.5C 19.5664,31.1991 21.8997,32.5324 24.5,33.5C 27.1421,37.7755 30.4754,41.4421 34.5,44.5C 35.8333,45.1667 36.8333,46.1667 37.5,47.5C 38.3038,52.2635 39.9705,56.5969 42.5,60.5C 46.8486,70.262 48.5153,80.5953 47.5,91.5C 42.1563,91.666 36.8229,91.4994 31.5,91C 31.269,75.6584 25.269,62.9918 13.5,53C 9.14524,51.997 4.97857,50.497 1,48.5C 0.500344,41.1742 0.333677,33.8409 0.5,26.5 Z"/></g>
<g><path style="opacity:0.771" fill="#383838" d="M 0.5,26.5 C 0.5,26.1667 0.5,25.8333 0.5,25.5C 5.21532,25.506 9.88199,26.006 14.5,27C 15.9423,27.3768 16.9423,28.2101 17.5,29.5C 11.8887,28.0823 6.22205,27.0823 0.5,26.5 Z"/></g>
<g><path style="opacity:1" fill="#ffafac" d="M 45.5,28.5 C 47.7451,31.3197 49.7451,34.3197 51.5,37.5C 47.7445,35.652 45.7445,32.652 45.5,28.5 Z"/></g>
<g><path style="opacity:1" fill="#4a4a4a" d="M 24.5,33.5 C 26.371,33.8588 27.871,34.8588 29,36.5C 31.0795,39.0652 32.9128,41.7318 34.5,44.5C 30.4754,41.4421 27.1421,37.7755 24.5,33.5 Z"/></g>
<g><path style="opacity:0.996" fill="#fe9d9c" d="M 53.5,43.5 C 55.2451,45.0326 56.2451,47.0326 56.5,49.5C 54.7549,47.9674 53.7549,45.9674 53.5,43.5 Z"/></g>
<g><path style="opacity:1" fill="#4c4c4c" d="M 37.5,47.5 C 38.4584,47.9528 39.2917,48.6195 40,49.5C 40.2009,52.7528 41.0343,55.7528 42.5,58.5C 42.5,59.1667 42.5,59.8333 42.5,60.5C 39.9705,56.5969 38.3038,52.2635 37.5,47.5 Z"/></g>
<g><path style="opacity:1" fill="#949494" d="M 42.5,58.5 C 44.4535,61.1411 45.9535,64.1411 47,67.5C 48.927,75.3829 49.7603,83.3829 49.5,91.5C 48.8333,91.5 48.1667,91.5 47.5,91.5C 48.5153,80.5953 46.8486,70.262 42.5,60.5C 42.5,59.8333 42.5,59.1667 42.5,58.5 Z"/></g>
<g><path style="opacity:0.585" fill="#fe0000" d="M 6.5,64.5 C 12.8345,63.6523 17.0012,66.3189 19,72.5C 21.2595,79.2986 20.0928,85.4653 15.5,91C 11.8333,91.6667 8.16667,91.6667 4.5,91C 0.626701,85.1085 -0.539965,78.6085 1,71.5C 2.37099,68.7339 4.20432,66.4006 6.5,64.5 Z"/></g>
<g><path style="opacity:1" fill="#fececd" d="M 58.5,58.5 C 62.9273,68.9128 64.594,79.9128 63.5,91.5C 63.1667,91.5 62.8333,91.5 62.5,91.5C 61.5139,80.4394 60.1806,69.4394 58.5,58.5 Z"/></g>
<g><path style="opacity:0.795" fill="#ff5854" d="M 58.5,56.5 C 59.1174,56.6107 59.6174,56.944 60,57.5C 63.9572,68.4832 65.4572,79.8165 64.5,91.5C 64.1667,91.5 63.8333,91.5 63.5,91.5C 64.594,79.9128 62.9273,68.9128 58.5,58.5C 58.5,57.8333 58.5,57.1667 58.5,56.5 Z"/></g>
<g><path style="opacity:0.872" fill="#000000" d="M 66.5,91.5 C 70.5,91.5 74.5,91.5 78.5,91.5C 81.0416,92.0387 83.2082,93.372 85,95.5C 89.1398,112.393 92.8065,129.393 96,146.5C 97,148.5 98,150.5 99,152.5C 102.733,133.237 107.233,114.237 112.5,95.5C 114.295,93.2975 116.629,92.1308 119.5,92C 124.904,91.2282 130.238,91.5615 135.5,93C 136.333,93.8333 137.167,94.6667 138,95.5C 143.302,115.375 148.302,135.375 153,155.5C 156.753,135.162 161.42,115.162 167,95.5C 170.355,92.4885 174.355,91.1551 179,91.5C 189.525,91.5296 192.858,96.5296 189,106.5C 181.97,133.955 174.637,161.289 167,188.5C 165.855,189.636 164.688,190.636 163.5,191.5C 155.5,191.5 147.5,191.5 139.5,191.5C 138.542,190.038 137.376,188.705 136,187.5C 132.909,171.796 128.909,156.462 124,141.5C 120.041,155.615 116.708,169.949 114,184.5C 113.096,187.233 111.596,189.567 109.5,191.5C 101.5,191.5 93.5,191.5 85.5,191.5C 83.6236,189.803 82.1236,187.803 81,185.5C 74.8754,157.854 67.8754,130.52 60,103.5C 58.3286,97.1621 60.4953,93.1621 66.5,91.5 Z"/></g>
<g><path style="opacity:0.718" fill="#fe0402" d="M 3.5,98.5 C 21.1667,98.5 38.8333,98.5 56.5,98.5C 56.5,119.833 56.5,141.167 56.5,162.5C 49.1667,162.5 41.8333,162.5 34.5,162.5C 34.5,167.167 34.5,171.833 34.5,176.5C 37.1667,176.5 39.8333,176.5 42.5,176.5C 42.8,181.099 42.4667,185.599 41.5,190C 33.5069,190.5 25.5069,190.666 17.5,190.5C 17.5,185.833 17.5,181.167 17.5,176.5C 19.8333,176.5 22.1667,176.5 24.5,176.5C 24.5,171.833 24.5,167.167 24.5,162.5C 17.1667,162.5 9.83333,162.5 2.5,162.5C 2.17846,141.091 2.51179,119.758 3.5,98.5 Z"/></g>
<g><path style="opacity:1" fill="#ee8080" d="M 7.5,105.5 C 22.8333,105.5 38.1667,105.5 53.5,105.5C 53.8297,121.675 53.4964,137.675 52.5,153.5C 52.5,152.833 52.5,152.167 52.5,151.5C 52.5,136.5 52.5,121.5 52.5,106.5C 37.8333,106.5 23.1667,106.5 8.5,106.5C 8.5,121.5 8.5,136.5 8.5,151.5C 8.5,152.167 8.5,152.833 8.5,153.5C 7.50364,137.675 7.1703,121.675 7.5,105.5 Z"/></g>
<g><path style="opacity:1" fill="#f22a2d" d="M 7.5,105.5 C 7.1703,121.675 7.50364,137.675 8.5,153.5C 22.6569,154.496 36.9903,154.829 51.5,154.5C 36.7645,155.83 21.9312,155.83 7,154.5C 6.1718,137.995 6.33846,121.661 7.5,105.5 Z"/></g>
<g><path style="opacity:1" fill="#e1dddf" d="M 52.5,151.5 C 52.1667,151.5 51.8333,151.5 51.5,151.5C 37.1935,150.689 22.8602,150.689 8.5,151.5C 8.5,136.5 8.5,121.5 8.5,106.5C 23.1667,106.5 37.8333,106.5 52.5,106.5C 52.5,121.5 52.5,136.5 52.5,151.5 Z"/></g>
<g><path style="opacity:1" fill="#fafafa" d="M 17.5,107.5 C 28.748,107.179 39.9146,107.513 51,108.5C 51.6667,121.833 51.6667,135.167 51,148.5C 37.2304,148.944 25.3971,148.944 15.5,148.5C 15.6495,147.448 15.4828,146.448 15,145.5C 13.3333,144.5 11.6667,143.5 10,142.5C 9.51722,141.552 9.35055,140.552 9.5,139.5C 11.8568,139.663 14.1902,139.497 16.5,139C 17.9733,138.29 18.6399,137.124 18.5,135.5C 15.7952,135.62 15.1285,134.62 16.5,132.5C 14.2573,131.526 11.924,131.192 9.5,131.5C 9.5,130.5 9.5,129.5 9.5,128.5C 15.2055,128.829 20.8722,128.495 26.5,127.5C 26.2907,126.914 25.9574,126.414 25.5,126C 20.1771,125.501 14.8437,125.334 9.5,125.5C 9.5,124.5 9.5,123.5 9.5,122.5C 14.1103,122.404 14.4436,121.404 10.5,119.5C 12.0777,118.702 13.7444,118.202 15.5,118C 13.7795,117.261 12.1128,116.427 10.5,115.5C 15.8333,114.833 21.1667,114.167 26.5,113.5C 23.1667,112.833 19.8333,112.167 16.5,111.5C 17.2458,110.264 17.5792,108.93 17.5,107.5 Z"/></g>
<g><path style="opacity:1" fill="#aebdd5" d="M 51.5,151.5 C 37.539,153.483 23.2057,154.15 8.5,153.5C 8.5,152.833 8.5,152.167 8.5,151.5C 22.8602,150.689 37.1935,150.689 51.5,151.5 Z"/></g>
<g><path style="opacity:1" fill="#b8869a" d="M 51.5,151.5 C 51.8333,151.5 52.1667,151.5 52.5,151.5C 52.5,152.167 52.5,152.833 52.5,153.5C 52.5,154.167 52.1667,154.5 51.5,154.5C 36.9903,154.829 22.6569,154.496 8.5,153.5C 23.2057,154.15 37.539,153.483 51.5,151.5 Z"/></g>
</svg>
